<svg id="Layer_1" data-name="Layer 1" xmlns="http://www.w3.org/2000/svg" viewBox="0 0 56 66">
    <defs>
        <style>
            .cls-1 {
                fill: #b8a078;
            }
        </style>
    </defs>
    <title>coffeemachine</title><path
        id="Shape_2_copy"
        data-name="Shape 2 copy"
        class="cls-1"
        d="M55.1 17.2a.9.9 0 0 0 .9-.9V7.8A7.68 7.68 0 0 0 48.5 0H7.7A7.7 7.7 0 0 0 0 7.7v8.6a.9.9 0 0 0 .9.9h4.3V55H.9a.92.92 0 0 0-.9.94V65a.92.92 0 0 0 .84 1H55a.9.9 0 0 0 .9-.9V56a1.06 1.06 0 0 0-.9-1h-4.3V17.2zM41.3 50.7a7.17 7.17 0 0 1-.6 2.9c-.4.7-1 1.3-2.9 1.3H18.2c-1.9 0-2.5-.6-2.9-1.3a7.17 7.17 0 0 1-.6-2.9zm-6-16.8v14.9H19.2V33.9zm4.5 9.8a.9.9 0 0 1-.6.6h-2.1V37h2.1a.9.9 0 0 1 .6.6zm2.5 10.9a9.81 9.81 0 0 0 .9-4.8.9.9 0 0 0-.9-.9h-5.1v-2.7h2.1a2.34 2.34 0 0 0 2.4-2.27V37.6a2.46 2.46 0 0 0-2.4-2.5h-2.1V33a.9.9 0 0 0-.9-.9h-18a.9.9 0 0 0-.9.9v15.8h-3.6a.9.9 0 0 0-.9.9 10 10 0 0 0 .9 4.8c.1.1.2.3.3.4h-7V17.2h12.4V20a1 1 0 0 0 .5.8l3.3 2v4.1a.9.9 0 0 0 .9.9h7.5a.9.9 0 0 0 .9-.9v-4.1l3.3-2a1 1 0 0 0 .5-.8v-2.9h12.4v37.8H42zm-7.7-35.1l-3.3 2a1 1 0 0 0-.5.8v3.6h-5.6v-3.6a.89.89 0 0 0-.5-.8l-3.3-2v-2.3h13.2zM7.7 1.9h40.6a5.7 5.7 0 0 1 5.8 5.6v7.7H1.9V7.8a5.77 5.77 0 0 1 5.5-5.9zm46.4 54.9V64H1.9v-7.2zm-8.1-45a3.25 3.25 0 1 0-3.2-3.3v.1a3.22 3.22 0 0 0 3.2 3.2zm0-4.6a1.35 1.35 0 1 1 .1 2.7c-.7.1-1.3-.6-1.4-1.3A1.49 1.49 0 0 1 46 7.2zM17.5 9.5h6a1.08 1.08 0 0 0 .7-.3.91.91 0 0 0 .3-.7 1.07 1.07 0 0 0-1-1h-6a.9.9 0 0 0-.9.9v.1a.92.92 0 0 0 .84 1zm-9.6 0h6a1.08 1.08 0 0 0 .7-.3 1 1 0 0 0-.7-1.7h-6a1.06 1.06 0 0 0-.9 1v.1a.9.9 0 0 0 .9.9z"/></svg>
