<?xml version="1.0" encoding="iso-8859-1"?>
<!-- Generator: Adobe Illustrator 19.0.0, SVG Export Plug-In . SVG Version: 6.00 Build 0)  -->
<svg version="1.1" id="Layer_1" xmlns="http://www.w3.org/2000/svg" xmlns:xlink="http://www.w3.org/1999/xlink" x="0px" y="0px"
	 viewBox="0 0 512 512" style="enable-background:new 0 0 512 512;" xml:space="preserve">
<g>
	<g>
		<path d="M60.433,181.922l45.326,69.094V512h241.865V181.922H60.433z M331.919,496.294H121.465v-72.245h210.454V496.294z
			 M331.919,408.344H121.465V246.325l-31.946-48.698h129.32v151.035h0h-79.522v7.853c0,18.764,15.266,34.029,34.029,34.029h105.751
			c18.763,0,34.029-15.265,34.029-34.029v-7.853h-78.58V197.628h97.374V408.344z M295.649,364.368
			c-2.945,6.185-9.259,10.47-16.554,10.47H173.344c-7.295,0-13.608-4.286-16.554-10.47H295.649z"/>
	</g>
</g>
<g>
	<g>
		<path d="M436.199,416.466c-13.845-7.615-22.446-22.162-22.446-37.963V205.855c0-25.177-20.483-45.659-45.66-45.659h-26.35
			c-15.228-47.05-57.91-80.148-107.2-83.351V55.422c11.778-3.412,20.417-14.289,20.417-27.152c0-15.588-12.682-28.27-28.27-28.27
			s-28.27,12.682-28.27,28.27c0,12.863,8.639,23.739,20.417,27.152v21.423c-49.29,3.203-91.973,36.302-107.2,83.351H75.447v15.706
			h292.646c16.517,0,29.955,13.438,29.955,29.954v172.648c0,21.53,11.718,41.348,30.584,51.724l15.366,8.452l7.569-13.761
			L436.199,416.466z M214.128,28.27c0-6.928,5.636-12.564,12.564-12.564s12.564,5.636,12.564,12.564s-5.636,12.564-12.564,12.564
			S214.128,35.198,214.128,28.27z M128.283,160.196c15.321-40.462,54.401-67.926,98.408-67.926
			c44.007,0,83.086,27.466,98.408,67.926H128.283z"/>
	</g>
</g>
<g>
</g>
<g>
</g>
<g>
</g>
<g>
</g>
<g>
</g>
<g>
</g>
<g>
</g>
<g>
</g>
<g>
</g>
<g>
</g>
<g>
</g>
<g>
</g>
<g>
</g>
<g>
</g>
<g>
</g>
</svg>
